<?xml version="1.0" encoding="UTF-8"?>
<!DOCTYPE svg PUBLIC "-//W3C//DTD SVG 1.1//EN" "http://www.w3.org/Graphics/SVG/1.1/DTD/svg11.dtd">
<!-- Creator: CorelDRAW 2018 (64-Bit) -->
<svg xmlns="http://www.w3.org/2000/svg" xml:space="preserve" width="182.838mm" height="81.2008mm" version="1.1" style="shape-rendering:geometricPrecision; text-rendering:geometricPrecision; image-rendering:optimizeQuality; fill-rule:evenodd; clip-rule:evenodd"
viewBox="0 0 18283.8 8120.08"
 xmlns:xlink="http://www.w3.org/1999/xlink">
 <defs>
  <style type="text/css">
   <![CDATA[
    .fil0 {fill:#5B472F}
    .fil1 {fill:#57A695}
    .fil2 {fill:#E7CD9F;fill-rule:nonzero}
   ]]>
  </style>
 </defs>
 <g id="Layer_x0020_1">
  <metadata id="CorelCorpID_0Corel-Layer"/>
  <g id="_2234044042656">
   <ellipse class="fil0" cx="9141.9" cy="3222.74" rx="9141.88" ry="2154.04"/>
   <ellipse class="fil1" cx="8029.1" cy="2154.66" rx="7850.11" ry="2154.68"/>
   <ellipse class="fil0" cx="11775.88" cy="6513.35" rx="5215.34" ry="1606.76"/>
   <ellipse class="fil1" cx="11047.91" cy="5662.55" rx="4603.36" ry="1522.26"/>
   <g>
    <path class="fil2" d="M15036.17 2927.47c42.75,-62.18 54.4,-135.99 54.4,-205.93 0,-466.21 -893.6,-470.09 -893.6,-846.98 0,-151.51 167.08,-252.52 349.66,-252.52 136,0 268.09,73.81 268.09,190.38 0,7.77 0,19.43 -7.76,27.18 69.93,3.9 132.09,3.9 202.02,3.9 27.19,0 62.16,0 89.37,-3.9 0,-15.53 7.75,-31.06 7.75,-46.62 0,-209.8 -240.86,-310.8 -473.98,-310.8 -345.79,0 -637.17,194.24 -637.17,481.75 0,524.5 874.16,512.85 874.16,854.74 0,151.52 -135.98,248.66 -318.58,248.66 -182.61,0 -353.56,-97.14 -427.38,-233.11l-236.98 0c19.41,244.77 326.35,388.52 598.31,388.52 240.89,0 477.88,-93.25 551.69,-295.27z"/>
    <path id="1" class="fil0" d="M15225.3 2861.39c-10.79,45.74 -28.28,91.1 -55.19,134.39 -50.36,123.99 -143.56,215.95 -260.15,278.36 -124.56,66.66 -275.56,98.6 -425.48,98.6 -171.75,0 -357.06,-49.59 -497.63,-140.88 -138.7,-90.04 -236.96,-220.19 -250.09,-385.92l-12.82 -161.72 162.23 0 236.98 0 88.61 0 42.64 78.52c23.44,43.18 64.37,81.18 115.37,109 52.64,28.72 115.35,45.59 180.76,45.59 59.43,0 107.81,-13.43 138.36,-37.28 18.92,-14.77 30.22,-35.82 30.22,-61.38 0,-57.94 -133.56,-120.87 -281.34,-190.49 -279.71,-131.77 -592.82,-279.27 -592.82,-664.25 0,-191 92.4,-350.18 240.5,-462.15 142.27,-107.56 337.25,-169.6 546.67,-169.6 152.33,0 310.19,37.39 426.57,113.71 119.18,78.14 197.41,193.1 197.41,347.09 0,23.68 -3.76,40.28 -7.75,56.37l0 120.02 -128.91 18.47c-39.48,5.65 -79.42,5.66 -110.46,5.66 -15.42,0 -30.01,-0.01 -102.77,-1.08 -38.34,-0.56 -74.24,-1.56 -107.45,-3.41l-334.39 -18.64 177.04 -176.81c-24.85,-13.86 -58.69,-21.52 -94.78,-21.52 -63.96,0 -122.7,16.56 -162.61,45.38 -22.58,16.31 -37.05,36.26 -37.05,57.14 0,83.85 158.36,158.83 325.1,237.77 276.49,130.9 568.5,269.15 568.5,609.21 0,44.89 -3.98,92.07 -15.27,139.85zm-189.13 66.08c42.75,-62.18 54.4,-135.99 54.4,-205.93 0,-466.21 -893.6,-470.09 -893.6,-846.98 0,-151.51 167.08,-252.52 349.66,-252.52 136,0 268.09,73.81 268.09,190.38 0,7.77 0,19.43 -7.76,27.18 69.93,3.9 132.09,3.9 202.02,3.9 27.19,0 62.16,0 89.37,-3.9 0,-15.53 7.75,-31.06 7.75,-46.62 0,-209.8 -240.86,-310.8 -473.98,-310.8 -345.79,0 -637.17,194.24 -637.17,481.75 0,524.5 874.16,512.85 874.16,854.74 0,151.52 -135.98,248.66 -318.58,248.66 -182.61,0 -353.56,-97.14 -427.38,-233.11l-236.98 0c19.41,244.77 326.35,388.52 598.31,388.52 240.89,0 477.88,-93.25 551.69,-295.27z"/>
   </g>
   <g>
    <path class="fil2" d="M12833.29 1688.08l116.56 0c-3.9,89.36 -7.78,178.73 -7.78,268.07 0,652.72 135.99,1262.71 800.36,1262.71 19.4,0 42.72,3.88 62.15,0 0,-50.53 -3.87,-97.15 -3.87,-147.65 -34.98,0 -62.18,0 -85.49,-3.88 -411.83,-7.77 -489.54,-508.96 -489.54,-742.07 0,-225.34 3.9,-431.26 7.78,-641.06l512.84 -3.88 0 -167.08 -505.06 3.9c11.65,-268.07 27.18,-540.03 46.62,-831.42l-279.74 -11.65c7.76,205.9 -31.08,512.84 -50.52,846.95l-124.31 0 0 167.06z"/>
    <path id="1" class="fil0" d="M12792.07 1956.15c0,-30.28 0.92,-71.18 2.37,-118.07l-111.15 0 0 -150 0 -167.06 0 -150 134.12 0c5.31,-74.45 10.9,-142.99 16.27,-208.88 15.65,-192.2 29.55,-362.73 25.03,-482.8l-6.08 -161.39 161.35 6.71 279.74 11.65 153.75 6.41 -10.2 152.96c-10.13,151.91 -18.9,292.53 -26.23,422.69 -4.8,85.23 -9.17,167.83 -13.11,248.15l347.78 -2.69 150.59 -1.16 0 150.57 0 167.08 0 148.28 -149.41 1.13 -366.66 2.77c-2.52,146.73 -4.55,300.86 -4.55,492.76 0,121.36 22.87,324.3 113.79,462.13 48.97,74.22 121.63,128.53 228.09,130.53l13.25 0.25 9.02 1.5c9.24,1.53 31.84,1.54 60.88,1.54l150 0 0 150c0,34.4 0.68,51.09 1.34,67.94 1.26,31.67 2.53,63.36 2.53,79.71l0 123.01 -120.7 24.06c-30.94,6.16 -56.18,4.65 -80.28,3.17 -1.98,-0.12 -3.96,-0.24 -11.17,-0.24 -399.18,0 -640.68,-185.33 -782.91,-469.79 -129.75,-259.5 -167.45,-597.25 -167.45,-942.92zm1008.64 1115.06c-34.98,0 -62.18,0 -85.49,-3.88 -411.83,-7.77 -489.54,-508.96 -489.54,-742.07 0,-225.34 3.9,-431.26 7.78,-641.06l512.84 -3.88 0 -167.08 -505.06 3.9c11.65,-268.07 27.18,-540.03 46.62,-831.42l-279.74 -11.65c7.76,205.9 -31.08,512.84 -50.52,846.95l-124.31 0 0 167.06 116.56 0c-3.9,89.36 -7.78,178.73 -7.78,268.07 0,652.72 135.99,1262.71 800.36,1262.71 19.4,0 42.72,3.88 62.15,0 0,-50.53 -3.87,-97.15 -3.87,-147.65z"/>
   </g>
   <g>
    <path class="fil2" d="M12693.4 1486.06l-260.3 3.87c-42.75,299.17 -213.68,1495.81 -590.55,1495.81 -209.81,0 -217.56,-361.32 -217.56,-473.99 0,-260.3 0,-757.62 42.72,-1017.91l-260.3 0c-31.09,198.14 -34.97,528.37 -34.97,792.57 0,97.12 0,186.49 0,264.18 0,190.39 11.66,699.33 357.45,699.33 435.14,0 660.46,-773.14 734.3,-1021.79l7.75 0c-23.31,159.28 -34.96,322.46 -34.96,473.98 0,62.18 -7.75,205.92 -7.75,334.14 0,93.24 3.87,182.61 19.4,225.33l295.29 -19.41c-54.39,-279.73 -69.93,-567.24 -69.93,-854.76 0,-299.14 15.54,-598.31 19.41,-901.35z"/>
    <path id="1" class="fil0" d="M12431.34 1340.52l260.3 -3.87 153.13 -2.27 -1.96 153.44c-1.72,134.8 -5.54,263.92 -9.34,392.58 -4.74,160.84 -9.48,320.96 -9.48,507.01 0,141.78 3.74,282.19 13.98,419.17 10.29,137.69 27.07,273.92 53.02,407.46l32.34 166.37 -170.03 11.17 -295.29 19.41 -111.59 7.34 -38.42 -105.77c-12.98,-35.75 -20.47,-82.28 -24.3,-134.15 -3.21,-43.42 -4.37,-89.98 -4.46,-136.15 -135.22,200.87 -314.86,357.66 -549.35,357.66 -258.32,0 -387.55,-176.01 -451.37,-384.91 -52.73,-172.66 -56.08,-361.8 -56.08,-464.42l0 -264.18c0,-125.64 1.07,-271.21 6.42,-425.75 5.03,-145.64 14.29,-283.79 30.89,-389.67l19.94 -127.15 127.72 0 260.3 0 176.22 0 -28.56 174.02c-40.38,246.03 -40.38,736.95 -40.38,993.89 0,49.9 1.61,154.45 24.83,240.58 12.06,44.71 27.01,83.41 42.73,83.41 246.98,0 403.19,-1093.13 442.29,-1366.75l0.23 0.03 16.87 -126.57 129.4 -1.93zm262.06 145.54l-260.3 3.87c-42.75,299.17 -213.68,1495.81 -590.55,1495.81 -209.81,0 -217.56,-361.32 -217.56,-473.99 0,-260.3 0,-757.62 42.72,-1017.91l-260.3 0c-31.09,198.14 -34.97,528.37 -34.97,792.57 0,97.12 0,186.49 0,264.18 0,190.39 11.66,699.33 357.45,699.33 435.14,0 660.46,-773.14 734.3,-1021.79l7.75 0c-23.31,159.28 -34.96,322.46 -34.96,473.98 0,62.18 -7.75,205.92 -7.75,334.14 0,93.24 3.87,182.61 19.4,225.33l295.29 -19.41c-54.39,-279.73 -69.93,-567.24 -69.93,-854.76 0,-299.14 15.54,-598.31 19.41,-901.35z"/>
   </g>
   <g>
    <path class="fil2" d="M11236.46 1905.66c0,-167.06 -58.28,-439.03 -330.24,-439.03 -458.44,0 -656.59,858.63 -687.68,1115.05l-7.77 0c27.21,-252.54 23.31,-870.29 27.21,-1130.59l-256.43 23.31c38.85,555.59 -38.86,1526.88 -54.39,1759.99l271.95 0c73.84,-376.85 260.33,-1491.91 606.09,-1491.91 159.3,0 186.49,167.06 186.49,260.3 0,306.94 -3.88,905.25 15.55,1231.61l256.43 0 -27.21 -1328.73z"/>
    <path id="1" class="fil0" d="M11236.46 1905.66c0,-167.06 -58.28,-439.03 -330.24,-439.03 -458.44,0 -656.59,858.63 -687.68,1115.05l-7.77 0c27.21,-252.54 23.31,-870.29 27.21,-1130.59l-256.43 23.31c38.85,555.59 -38.86,1526.88 -54.39,1759.99l271.95 0c73.84,-376.85 260.33,-1491.91 606.09,-1491.91 159.3,0 186.49,167.06 186.49,260.3 0,306.94 -3.88,905.25 15.55,1231.61l256.43 0 -27.21 -1328.73zm28.89 -414.69c94.53,125.67 121.11,293.66 121.11,414.69l-0.53 0 27.15 1325.8 3.13 152.93 -152.54 0 -256.43 0 -141.01 0 -8.4 -141.21c-16.9,-283.84 -16.17,-778.06 -15.69,-1106.13 0.22,-157.2 -0.45,360.34 -0.45,-134.27 0,-33.62 -4.21,-80.77 -22.22,-105.91 -1.84,-2.56 -6.07,-4.39 -14.27,-4.39 -197.74,0 -365.48,879.62 -441.76,1279.67 -10.71,56.17 -14.39,76.28 -17.26,90.95l-23.77 121.29 -123.3 0 -271.95 0 -160.1 0 10.69 -159.96c2.21,-33.22 4.18,-60.91 6.46,-93.19 23.44,-330.5 82.11,-1158.02 47.93,-1646.88l-10.18 -145.5 146.11 -13.29 256.43 -23.31 165.37 -15.03 -2.48 165.62c-0.79,52.99 -1.26,119.08 -1.72,193.47 127.35,-191.62 297.36,-329.69 520.55,-329.69 167.58,0 282.1,71.94 359.13,174.34z"/>
   </g>
   <g>
    <path class="fil2" d="M9577.49 1501.59c-454.57,0 -567.22,897.47 -641.06,1041.24l-19.41 0c34.97,-260.32 50.5,-815.88 54.38,-1080.08l-264.18 11.65c15.54,73.82 15.54,423.48 15.54,493.41 0,353.57 -23.32,905.26 -23.32,1254.93l271.96 0c58.28,-225.34 217.58,-1460.83 528.4,-1460.83 50.5,0 93.25,27.19 120.43,54.38l225.34 -104.9c-19.42,-112.66 -97.13,-209.8 -268.08,-209.8z"/>
    <path id="1" class="fil0" d="M9117.62 1630.12c108.34,-161.2 255.24,-278.53 459.87,-278.53 114.83,0 204.49,33.03 272.51,86.26 82.25,64.37 126.9,153.58 143.23,248.34l19.44 112.81 -103.82 48.33 -225.34 104.9 -95.15 44.3 -74.18 -74.19c-4.12,-4.12 -8.83,-7.93 -13.23,-9.91l-1.15 -0.52c-128.83,0 -266.35,737.44 -337.96,1121.43 -18.72,100.45 -33.53,179.8 -45.71,226.9l-29.09 112.5 -115.64 0 -271.96 0 -150 0 0 -150c0,-154.97 6.1,-391.01 12.2,-627.64 5.55,-215.03 11.12,-430.72 11.12,-627.29 0,-42.39 -0.01,-169.58 -1.35,-242.91 -1.79,-97.21 -4.98,-193 -10.67,-220.03l-36.23 -172.1 176.26 -7.78 264.18 -11.65 158.19 -6.97 -2.33 158.14c-0.69,47.33 -1.74,103.64 -3.19,165.61zm-394.86 337.69c0,353.57 -23.32,905.26 -23.32,1254.93l271.96 0c58.28,-225.34 217.58,-1460.83 528.4,-1460.83 50.5,0 93.25,27.19 120.43,54.38l225.34 -104.9c-19.42,-112.66 -97.13,-209.8 -268.08,-209.8 -454.57,0 -567.22,897.47 -641.06,1041.24l-19.41 0c34.97,-260.32 50.5,-815.88 54.38,-1080.08l-264.18 11.65c15.54,73.82 15.54,423.48 15.54,493.41z"/>
   </g>
   <g>
    <path class="fil2" d="M7611.6 2084.37c54.4,-182.59 159.3,-473.98 454.57,-473.98 163.18,0 240.89,143.74 240.89,256.42 0,271.95 -427.38,345.77 -699.34,361.32l3.88 -143.76zm477.88 924.69c-384.63,0 -481.76,-439.04 -481.76,-676.02 365.2,-34.97 1002.38,-124.34 1002.38,-508.97 0,-198.15 -174.83,-334.14 -419.6,-334.14 -598.34,0 -850.86,617.75 -850.86,1010.16 0,299.17 178.71,730.42 625.51,730.42 159.29,0 392.4,-93.24 536.15,-221.45l-101 -101.03c-93.24,62.16 -225.36,101.03 -310.82,101.03z"/>
    <path id="1" class="fil0" d="M7869.26 1867.39c-41.37,56.59 -70.95,127.84 -93.2,193.53 101.34,-15.13 204.47,-40.19 283,-80.77 57.72,-29.81 98,-67.23 98,-113.34 0,-28.44 -10.22,-60.59 -31.21,-82.93 -13.07,-13.91 -32.7,-23.49 -59.68,-23.49 -90.12,0 -152.51,46.26 -196.91,107zm-257.66 216.98c54.4,-182.59 159.3,-473.98 454.57,-473.98 163.18,0 240.89,143.74 240.89,256.42 0,271.95 -427.38,345.77 -699.34,361.32l3.88 -143.76zm-3.88 248.67c365.2,-34.97 1002.38,-124.34 1002.38,-508.97 0,-198.15 -174.83,-334.14 -419.6,-334.14 -598.34,0 -850.86,617.75 -850.86,1010.16 0,299.17 178.71,730.42 625.51,730.42 159.29,0 392.4,-93.24 536.15,-221.45l-101 -101.03c-93.24,62.16 -225.36,101.03 -310.82,101.03 -384.63,0 -481.76,-439.04 -481.76,-676.02zm261.5 410.81c47.87,67.17 118.49,115.21 220.26,115.21 29.52,0 69.61,-7.67 111.86,-21.4 40.9,-13.29 81.98,-31.91 115.76,-54.43l101.97 -67.97 87.28 87.3 101 101.03 111.85 111.88 -118.29 105.5c-83.3,74.3 -191.52,138.31 -301.76,183.83 -114.99,47.5 -234.71,75.71 -334,75.71 -244.31,0 -425.48,-103.53 -552.32,-251.65 -155.19,-181.21 -223.19,-430.37 -223.19,-628.77 0,-251.27 92.63,-585.43 297.31,-828.44 163.5,-194.1 395.03,-331.72 703.55,-331.72 157.38,0 295.22,46.32 395.66,126.3 109.54,87.23 173.94,211.02 173.94,357.84 0,271.82 -202.61,431.11 -463.26,526.24 -168.27,61.4 -361.67,95.06 -528.92,115.71 14.26,95.15 44.99,198.81 101.3,277.83z"/>
   </g>
   <g>
    <path class="fil2" d="M6310.07 2099.92c77.69,-143.77 225.34,-349.66 458.45,-349.66 190.37,0 217.58,349.66 217.58,458.44 0,303.05 -93.25,850.86 -594.44,850.86 -147.64,0 -287.51,-73.82 -380.75,-159.31l0 -31.06c7.78,-159.3 217.57,-633.3 299.16,-769.27zm-602.21 2307.81l252.55 -3.9c0,-353.55 0,-1037.35 19.41,-1379.24 104.9,97.12 260.32,170.96 431.26,170.96 617.74,0 846.97,-722.65 846.97,-1107.28 0,-194.27 -73.81,-641.06 -404.06,-641.06 -404.05,0 -726.53,668.25 -823.65,928.55l-15.55 0c19.43,-244.77 89.36,-676.03 89.36,-924.67l-268.07 31.09c-81.59,862.51 -31.1,2043.6 -128.22,2925.55z"/>
    <path id="1" class="fil0" d="M6581.79 1981.34c-59.99,54.99 -106.86,128.36 -139.88,189.48l-3.52 5.86c-43.37,72.28 -127.04,250.69 -192.92,420.12 -35.96,92.48 -65.79,178.98 -78.57,236.74 25.9,17.5 54.53,33.28 85.1,46.07 44.13,18.47 91.7,29.95 139.66,29.95 147.68,0 245.38,-64.73 309.08,-155.91 108.26,-154.96 135.36,-386.55 135.36,-544.95 0,-73.18 -8.46,-308.44 -67.58,-308.44 -73.62,0 -135.94,34.52 -186.73,81.08zm-271.72 118.58c77.69,-143.77 225.34,-349.66 458.45,-349.66 190.37,0 217.58,349.66 217.58,458.44 0,303.05 -93.25,850.86 -594.44,850.86 -147.64,0 -287.51,-73.82 -380.75,-159.31l0 -31.06c7.78,-159.3 217.57,-633.3 299.16,-769.27zm-330.25 924.67c104.9,97.12 260.32,170.96 431.26,170.96 617.74,0 846.97,-722.65 846.97,-1107.28 0,-194.27 -73.81,-641.06 -404.06,-641.06 -404.05,0 -726.53,668.25 -823.65,928.55l-15.55 0c19.43,-244.77 89.36,-676.03 89.36,-924.67l-268.07 31.09c-81.59,862.51 -31.1,2043.6 -128.22,2925.55l252.55 -3.9c0,-353.55 0,-1037.35 19.41,-1379.24zm-17.65 1528.65l-252.55 3.9 -169.13 2.61 18.54 -168.43c50.7,-460.47 60.85,-1001.86 70.86,-1536.15 9.17,-489.66 18.25,-973.51 57.36,-1387.05l11.43 -120.8 120.41 -13.97 268.07 -31.09 166.99 -19.36 0 168.19c0,66.14 -4.59,143.53 -11.75,226.32 22.8,-29.7 46.42,-58.52 70.82,-86.03 150.77,-169.97 332.85,-294.17 540.77,-294.17 192.77,0 323.73,100.82 411.1,239.44 111.09,176.25 142.96,417.34 142.96,551.62 0,248.09 -86.66,623.9 -295.01,896.28 -160.39,209.69 -389.43,361 -701.96,361 -100.02,0 -196.53,-20.86 -284.59,-55.76 -2.31,-0.92 -4.62,-1.85 -6.92,-2.79 -9.15,354.96 -9.16,838.22 -9.16,1116.83l0 147.12 -148.24 2.29z"/>
   </g>
   <g>
    <path class="fil2" d="M4674.42 2099.92c77.69,-143.77 225.33,-349.66 458.45,-349.66 190.36,0 217.57,349.66 217.57,458.44 0,303.05 -93.24,850.86 -594.43,850.86 -147.65,0 -287.51,-73.82 -380.76,-159.31l0 -31.06c7.78,-159.3 217.58,-633.3 299.17,-769.27zm-602.21 2307.81l252.54 -3.9c0,-353.55 0,-1037.35 19.41,-1379.24 104.91,97.12 260.32,170.96 431.26,170.96 617.75,0 846.98,-722.65 846.98,-1107.28 0,-194.27 -73.82,-641.06 -404.07,-641.06 -404.04,0 -726.52,668.25 -823.64,928.55l-15.56 0c19.43,-244.77 89.37,-676.03 89.37,-924.67l-268.08 31.09c-81.59,862.51 -31.09,2043.6 -128.21,2925.55z"/>
    <path id="1" class="fil0" d="M4946.14 1981.34c-59.99,54.99 -106.86,128.36 -139.88,189.48l-3.52 5.86c-43.37,72.28 -127.04,250.71 -192.93,420.13 -35.96,92.46 -65.79,178.96 -78.58,236.73 25.91,17.5 54.54,33.28 85.12,46.07 44.13,18.47 91.7,29.95 139.66,29.95 147.68,0 245.38,-64.73 309.08,-155.91 108.24,-154.95 135.35,-386.55 135.35,-544.95 0,-56.49 -8.03,-188.9 -48.86,-274.95 -9.14,-19.26 -16.61,-33.49 -18.71,-33.49 -73.62,0 -135.94,34.52 -186.73,81.08zm-271.72 118.58c77.69,-143.77 225.33,-349.66 458.45,-349.66 190.36,0 217.57,349.66 217.57,458.44 0,303.05 -93.24,850.86 -594.43,850.86 -147.65,0 -287.51,-73.82 -380.76,-159.31l0 -31.06c7.78,-159.3 217.58,-633.3 299.17,-769.27zm-330.26 924.67c104.91,97.12 260.32,170.96 431.26,170.96 617.75,0 846.98,-722.65 846.98,-1107.28 0,-194.27 -73.82,-641.06 -404.07,-641.06 -404.04,0 -726.52,668.25 -823.64,928.55l-15.56 0c19.43,-244.77 89.37,-676.03 89.37,-924.67l-268.08 31.09c-81.59,862.51 -31.09,2043.6 -128.21,2925.55l252.54 -3.9c0,-353.55 0,-1037.35 19.41,-1379.24zm-17.65 1528.65l-252.54 3.9 -169.13 2.61 18.54 -168.43c50.7,-460.46 60.85,-1001.86 70.86,-1536.15 9.16,-489.66 18.24,-973.51 57.35,-1387.05l11.43 -120.8 120.41 -13.97 268.08 -31.09 166.99 -19.36 0 168.19c0,66.13 -4.59,143.52 -11.75,226.3 22.8,-29.69 46.41,-58.51 70.81,-86.01 150.77,-169.97 332.85,-294.17 540.77,-294.17 192.78,0 323.73,100.82 411.1,239.45 111.09,176.24 142.97,417.33 142.97,551.61 0,248.09 -86.66,623.9 -295.01,896.28 -160.4,209.69 -389.44,361 -701.97,361 -100.02,0 -196.52,-20.86 -284.58,-55.76 -2.32,-0.92 -4.63,-1.85 -6.93,-2.79 -9.15,354.96 -9.16,838.22 -9.16,1116.83l0 147.12 -148.24 2.29z"/>
   </g>
   <g>
    <path class="fil2" d="M2984.36 2084.37c54.4,-182.59 159.3,-473.98 454.57,-473.98 163.18,0 240.89,143.74 240.89,256.42 0,271.95 -427.38,345.77 -699.34,361.32l3.88 -143.76zm477.88 924.69c-384.63,0 -481.76,-439.04 -481.76,-676.02 365.21,-34.97 1002.38,-124.34 1002.38,-508.97 0,-198.15 -174.83,-334.14 -419.6,-334.14 -598.33,0 -850.86,617.75 -850.86,1010.16 0,299.17 178.71,730.42 625.51,730.42 159.29,0 392.41,-93.24 536.15,-221.45l-100.99 -101.03c-93.25,62.16 -225.36,101.03 -310.83,101.03z"/>
    <path id="1" class="fil0" d="M3242.02 1867.39c-41.37,56.59 -70.95,127.84 -93.2,193.53 101.34,-15.13 204.47,-40.19 283,-80.77 57.72,-29.81 98,-67.23 98,-113.34 0,-28.44 -10.22,-60.59 -31.21,-82.93 -13.07,-13.91 -32.7,-23.49 -59.68,-23.49 -90.12,0 -152.51,46.26 -196.91,107zm-257.66 216.98c54.4,-182.59 159.3,-473.98 454.57,-473.98 163.18,0 240.89,143.74 240.89,256.42 0,271.95 -427.38,345.77 -699.34,361.32l3.88 -143.76zm-3.88 248.67c365.21,-34.97 1002.38,-124.34 1002.38,-508.97 0,-198.15 -174.83,-334.14 -419.6,-334.14 -598.33,0 -850.86,617.75 -850.86,1010.16 0,299.17 178.71,730.42 625.51,730.42 159.29,0 392.41,-93.24 536.15,-221.45l-100.99 -101.03c-93.25,62.16 -225.36,101.03 -310.83,101.03 -384.63,0 -481.76,-439.04 -481.76,-676.02zm261.5 410.81c47.87,67.17 118.49,115.21 220.26,115.21 29.53,0 69.61,-7.67 111.86,-21.4 41.59,-13.51 82.93,-32.16 116.35,-54.43l101.64 -67.74 87.03 87.07 100.99 101.03 111.84 111.89 -118.28 105.49c-83.3,74.3 -191.52,138.3 -301.75,183.83 -114.99,47.5 -234.71,75.71 -334.01,75.71 -244.31,0 -425.48,-103.53 -552.32,-251.65 -155.19,-181.21 -223.19,-430.37 -223.19,-628.77 0,-251.27 92.63,-585.44 297.32,-828.44 163.48,-194.09 395.01,-331.72 703.54,-331.72 157.38,0 295.22,46.32 395.66,126.3 109.54,87.23 173.94,211.02 173.94,357.84 0,271.82 -202.6,431.11 -463.26,526.24 -168.26,61.4 -361.66,95.06 -528.92,115.71 14.26,95.15 44.99,198.81 101.3,277.83z"/>
   </g>
   <g>
    <path class="fil2" d="M1700.94 740.1c54.4,-3.88 116.55,-7.75 174.83,-7.75 481.76,0 648.84,128.2 648.84,524.47 0,330.26 -248.67,699.33 -633.31,699.33 -66.03,0 -132.08,-15.53 -209.79,-34.96 15.55,-411.82 19.43,-823.65 19.43,-1181.09zm1146.12 442.91c0,-415.7 -303.04,-606.09 -808.11,-606.09l-291.38 0c-54.41,0 -205.93,-15.53 -349.67,-15.53 -7.79,1394.76 -23.32,2152.38 -46.63,2688.53l295.27 0c11.66,-349.67 23.31,-757.6 31.09,-1169.43 217.58,3.88 419.6,0 633.28,-69.93l-3.88 -11.66c357.44,-132.09 540.03,-520.62 540.03,-815.89z"/>
    <path id="1" class="fil0" d="M1875.77 882.35c-8.81,0 -17.18,0.05 -25.13,0.15 -0.53,124.4 -1.78,266.06 -4.17,429.51 -2.37,161.52 -5.95,326.16 -11.2,489.79 18.56,2.75 37.03,4.35 56.03,4.35 134.41,0 247.12,-61.15 329.15,-151.72 98.28,-108.53 154.16,-257.34 154.16,-397.61 0,-150.48 -25.26,-244.91 -86.92,-294.24 -72,-57.59 -205.16,-80.23 -411.92,-80.23zm-174.83 -142.25c54.4,-3.88 116.55,-7.75 174.83,-7.75 481.76,0 648.84,128.2 648.84,524.47 0,330.26 -248.67,699.33 -633.31,699.33 -66.03,0 -132.08,-15.53 -209.79,-34.96 15.55,-411.82 19.43,-823.65 19.43,-1181.09zm1146.12 442.91c0,-415.7 -303.04,-606.09 -808.11,-606.09l-291.38 0c-54.41,0 -205.93,-15.53 -349.67,-15.53 -7.79,1394.76 -23.32,2152.38 -46.63,2688.53l295.27 0c11.66,-349.67 23.31,-757.6 31.09,-1169.43 217.58,3.88 419.6,0 633.28,-69.93l-3.88 -11.66c357.44,-132.09 540.03,-520.62 540.03,-815.89zm-115.45 -571.46c171.88,128.91 265.45,317.86 265.45,571.46 0,185.97 -61.58,402.95 -183.31,586.87 -80.96,122.31 -188.72,230.94 -323.07,307.91l9.45 28.39 -142.93 46.76c-119.36,39.05 -234.13,59.57 -348.58,69.67 -60.1,5.31 -121.58,7.61 -184.53,8.23 -3.01,142.85 -6.4,283.06 -10,418.71 -5.75,216.58 -11.99,420.52 -18.14,605.06l-4.84 145.31 -144.57 0 -295.27 0 -156.2 0 6.79 -156.45c11.73,-269.93 21.46,-592.45 29.13,-1018.18 7.77,-431.27 13.61,-968.88 17.5,-1664.49l0.84 -149.41 148.57 0c89.25,0 186.41,6.29 260.4,11.08 38.06,2.46 68.81,4.45 89.27,4.45l291.38 0c290.26,0 526.06,59.69 692.66,184.63z"/>
   </g>
   <g>
    <path class="fil2" d="M14144.77 6320.64c-361.32,0 -462.35,-446.79 -462.35,-668.25 0,-209.79 62.16,-745.96 423.48,-745.96 334.14,0 485.66,341.89 485.66,691.56 0,357.44 -159.3,722.65 -446.79,722.65zm89.35 -1569.62c-590.54,0 -823.65,617.74 -823.65,998.49 0,295.27 151.52,734.31 606.09,734.31 590.53,0 827.55,-621.63 827.55,-1002.38 0,-295.27 -159.31,-730.42 -609.99,-730.42zm-1153.91 -132.09c128.22,0 248.67,-81.59 248.67,-190.37 0,-104.91 -101.02,-151.52 -221.45,-151.52 -132.12,0 -256.42,73.81 -256.42,186.48 0,38.85 7.75,163.18 229.2,155.41zm120.46 1126.71c0,-93.25 0,-213.7 0,-345.79 0,-229.24 3.88,-489.54 19.41,-652.72l-279.73 0c-3.88,73.81 -3.88,159.3 -3.88,256.43 0,458.44 34.97,1087.84 34.97,1453.06l271.95 11.66c-34.96,-178.74 -42.72,-547.81 -42.72,-722.64zm-1052.88 50.5c-62.17,147.64 -202.04,415.72 -419.59,423.48 -186.5,11.65 -248.67,-341.89 -256.43,-446.8 -15.56,-326.35 128.21,-889.69 641.06,-913 104.89,-7.78 213.68,19.4 303.04,54.37 3.88,338.01 -85.49,508.97 -268.08,881.95zm275.84 -979.07c-104.9,-58.27 -225.34,-89.37 -361.32,-85.47 -633.29,31.07 -874.18,745.96 -854.74,1157.78 7.78,198.15 97.12,609.97 427.37,594.44 369.09,-15.54 757.62,-804.24 800.34,-1060.66l3.9 0c-7.77,85.46 -15.55,174.83 -15.55,260.3 0,73.83 7.78,143.77 7.78,213.7l27.18 582.78 303.05 -7.78c-77.69,-209.8 -81.59,-586.65 -89.34,-815.89 -11.67,-116.55 -15.57,-236.99 -15.57,-384.63 0,-295.27 19.44,-703.22 62.18,-1468.61l-295.28 0c-3.88,112.69 -3.88,225.36 -3.88,338.01 0,225.36 3.88,450.7 3.88,676.03zm-1371.48 -58.27l-260.3 3.87c-42.75,299.17 -213.68,1495.81 -590.56,1495.81 -209.8,0 -217.56,-361.32 -217.56,-473.99 0,-260.31 0,-757.62 42.73,-1017.92l-260.3 0c-31.1,198.14 -34.97,528.38 -34.97,792.58 0,97.12 0,186.49 0,264.18 0,190.38 11.66,699.33 357.45,699.33 435.13,0 660.46,-773.15 734.3,-1021.79l7.75 0c-23.31,159.28 -34.96,322.46 -34.96,473.98 0,62.17 -7.76,205.92 -7.76,334.13 0,93.25 3.88,182.62 19.41,225.33l295.29 -19.41c-54.4,-279.73 -69.93,-567.24 -69.93,-854.75 0,-299.14 15.53,-598.31 19.41,-901.35zm-2377.72 202.01l116.56 0c-3.9,89.37 -7.78,178.74 -7.78,268.08 0,652.72 135.99,1262.71 800.36,1262.71 19.41,0 42.72,3.87 62.15,0 0,-50.53 -3.88,-97.15 -3.88,-147.65 -34.96,0 -62.17,0 -85.49,-3.88 -411.81,-7.78 -489.52,-508.97 -489.52,-742.08 0,-225.33 3.9,-431.26 7.77,-641.05l512.85 -3.88 0 -167.08 -505.07 3.9c11.66,-268.08 27.19,-540.03 46.62,-831.42l-279.73 -11.66c7.75,205.91 -31.09,512.85 -50.52,846.96l-124.32 0 0 167.05zm-85.49 780.93c0,-722.65 -1138.34,-617.75 -1138.34,-1285.99 0,-233.12 182.59,-458.44 489.53,-458.44 66.03,0 132.09,7.77 198.15,23.3 31.06,46.62 108.78,27.19 108.78,167.06 0,7.78 0,15.56 -3.88,27.21 108.77,0 205.89,0 283.61,-3.9 7.77,-27.19 11.65,-50.5 11.65,-77.69 0,-233.11 -264.2,-295.29 -497.3,-295.29 -528.38,0 -839.21,372.98 -839.21,773.15 0,707.11 1118.94,652.71 1118.94,1278.23 0,271.96 -217.56,485.65 -563.35,485.65 -574.99,0 -586.66,-598.33 -586.66,-676.01l0 -7.79c-42.74,0 -81.58,-3.87 -116.55,0l0 27.2c-34.96,524.5 345.77,777.04 738.18,777.04 392.41,0 796.45,-256.42 796.45,-753.73z"/>
    <path id="1" class="fil0" d="M13944.23 6057.48c45.46,65.7 110.36,113.16 200.54,113.16 76.21,0 140.41,-51.56 188.93,-130.04 70.61,-114.21 107.86,-277.89 107.86,-442.61 0,-159.64 -34.94,-314.17 -108.64,-419.13 -52.23,-74.37 -127.35,-122.43 -227.02,-122.43 -77,0 -132.08,50.13 -171.05,118.78 -83.17,146.5 -102.43,364.3 -102.43,477.18 0,110.08 28.44,284.59 111.81,405.09zm200.54 263.16c-361.32,0 -462.35,-446.79 -462.35,-668.25 0,-209.79 62.16,-745.96 423.48,-745.96 334.14,0 485.66,341.89 485.66,691.56 0,357.44 -159.3,722.65 -446.79,722.65zm89.35 -1569.62c-590.54,0 -823.65,617.74 -823.65,998.49 0,295.27 151.52,734.31 606.09,734.31 590.53,0 827.55,-621.63 827.55,-1002.38 0,-295.27 -159.31,-730.42 -609.99,-730.42zm-1153.91 -132.09c128.22,0 248.67,-81.59 248.67,-190.37 0,-104.91 -101.02,-151.52 -221.45,-151.52 -132.12,0 -256.42,73.81 -256.42,186.48 0,38.85 7.75,163.18 229.2,155.41zm120.46 1126.71c0,-93.25 0,-213.7 0,-345.79 0,-229.24 3.88,-489.54 19.41,-652.72l-279.73 0c-3.88,73.81 -3.88,159.3 -3.88,256.43 0,458.44 34.97,1087.84 34.97,1453.06l271.95 11.66c-34.96,-178.74 -42.72,-547.81 -42.72,-722.64zm-1052.88 50.5c-62.17,147.64 -202.04,415.72 -419.59,423.48 -186.5,11.65 -248.67,-341.89 -256.43,-446.8 -15.56,-326.35 128.21,-889.69 641.06,-913 104.89,-7.78 213.68,19.4 303.04,54.37 3.88,338.01 -85.49,508.97 -268.08,881.95zm275.84 -979.07c-104.9,-58.27 -225.34,-89.37 -361.32,-85.47 -633.29,31.07 -874.18,745.96 -854.74,1157.78 7.78,198.15 97.12,609.97 427.37,594.44 369.09,-15.54 757.62,-804.24 800.34,-1060.66l3.9 0c-7.77,85.46 -15.55,174.83 -15.55,260.3 0,73.83 7.78,143.77 7.78,213.7l27.18 582.78 303.05 -7.78c-77.69,-209.8 -81.59,-586.65 -89.34,-815.89 -11.67,-116.55 -15.57,-236.99 -15.57,-384.63 0,-295.27 19.44,-703.22 62.18,-1468.61l-295.28 0c-3.88,112.69 -3.88,225.36 -3.88,338.01 0,225.36 3.88,450.7 3.88,676.03zm-1371.48 -58.27l-260.3 3.87c-42.75,299.17 -213.68,1495.81 -590.56,1495.81 -209.8,0 -217.56,-361.32 -217.56,-473.99 0,-260.31 0,-757.62 42.73,-1017.92l-260.3 0c-31.1,198.14 -34.97,528.38 -34.97,792.58 0,97.12 0,186.49 0,264.18 0,190.38 11.66,699.33 357.45,699.33 435.13,0 660.46,-773.15 734.3,-1021.79l7.75 0c-23.31,159.28 -34.96,322.46 -34.96,473.98 0,62.17 -7.76,205.92 -7.76,334.13 0,93.25 3.88,182.62 19.41,225.33l295.29 -19.41c-54.4,-279.73 -69.93,-567.24 -69.93,-854.75 0,-299.14 15.53,-598.31 19.41,-901.35zm-1410.31 1585.15c-34.96,0 -62.17,0 -85.49,-3.88 -411.81,-7.78 -489.52,-508.97 -489.52,-742.08 0,-225.33 3.9,-431.26 7.77,-641.05l512.85 -3.88 0 -167.08 -505.07 3.9c11.66,-268.08 27.19,-540.03 46.62,-831.42l-279.73 -11.66c7.75,205.91 -31.09,512.85 -50.52,846.96l-124.32 0 0 167.05 116.56 0c-3.9,89.37 -7.78,178.74 -7.78,268.08 0,652.72 135.99,1262.71 800.36,1262.71 19.41,0 42.72,3.87 62.15,0 0,-50.53 -3.88,-97.15 -3.88,-147.65zm-1115.05 -2132.97c7.77,-27.19 11.65,-50.5 11.65,-77.69 0,-233.11 -264.2,-295.29 -497.3,-295.29 -528.38,0 -839.21,372.98 -839.21,773.15 0,707.11 1118.94,652.71 1118.94,1278.23 0,271.96 -217.56,485.65 -563.35,485.65 -574.99,0 -586.66,-598.33 -586.66,-676.01l0 -7.79c-42.74,0 -81.58,-3.87 -116.55,0l0 27.2c-34.96,524.5 345.77,777.04 738.18,777.04 392.41,0 796.45,-256.42 796.45,-753.73 0,-722.65 -1138.34,-617.75 -1138.34,-1285.99 0,-233.12 182.59,-458.44 489.53,-458.44 66.03,0 132.09,7.77 198.15,23.3 31.06,46.62 108.78,27.19 108.78,167.06 0,7.78 0,15.56 -3.88,27.21 108.77,0 205.89,0 283.61,-3.9zm5020.04 717.93c158.11,-191.68 383.32,-327.89 687.29,-327.89 245.06,0 422.71,103.03 545.77,250.38 152.51,182.62 214.22,433.65 214.22,630.04 0,437.72 -279.99,1152.38 -977.55,1152.38 -246.04,0 -422.97,-103.51 -545.15,-251.52 -42.49,-51.48 -77.72,-108.34 -106.42,-167.83 5.99,87.32 14.25,167.71 25.47,225.1l36.41 186.23 -189.34 -8.11 -266.52 -11.43 3.68 9.93 -209.53 5.38 -303.05 7.78 -146.09 3.75 -6.84 -146.71 -17.49 -374.94c-31.7,50.28 -65.17,99.24 -100.01,145.42 -156.47,207.36 -347.51,367.8 -550.88,376.36l-3.04 0.13c-177.5,6.97 -304.49,-68.11 -394.14,-179.03 1.98,10.83 4.02,21.65 6.12,32.44l32.35 166.36 -170.04 11.18 -295.29 19.41 -111.57 7.33 -38.44 -105.76c-12.98,-35.71 -20.48,-82.25 -24.31,-134.14 -3.21,-43.42 -4.37,-89.96 -4.46,-136.13 -135.21,200.86 -314.85,357.64 -549.34,357.64 -125.81,0 -220.99,-41.76 -292.92,-108.73l0 50.67 -120.7 24.07c-31,6.18 -56.18,4.64 -80.27,3.17 -1.98,-0.12 -3.97,-0.24 -11.18,-0.24 -399.18,0 -640.69,-185.33 -782.91,-469.78 -34.04,-68.09 -61.74,-141.57 -84.09,-219.17 -39.16,176.99 -127.27,321.65 -244.79,432.86 -182.13,172.35 -433.5,259.96 -679.29,259.96 -20.48,0 -43.78,-0.87 -69.72,-2.59l-0.58 0c-209.45,-13.96 -412.44,-90.87 -564.54,-232.94 -154.98,-144.77 -255.58,-352.91 -255.58,-625.44 0,-19.79 0.74,-42.03 2.24,-66.74l0 -26.53 0 -134.04 133.59 -14.79c31.73,-3.51 62.3,-2.53 94.91,-1.48 4.74,0.15 9.37,0.31 38.05,0.31l150 0 0 150 0 7.79c0,32.66 2.37,174.59 63.06,303.86 53.78,114.56 160.86,222.15 373.6,222.15 131.46,0 236.05,-37.05 306.73,-97.98 68.39,-58.97 106.62,-142.89 106.62,-237.67 0,-214.79 -224.19,-337.14 -455.24,-463.23 -326.68,-178.29 -663.7,-362.21 -663.7,-815 0,-250.91 102.55,-493.23 291.47,-667.28 169.18,-155.87 405.99,-255.87 697.74,-255.87 303.4,0 647.3,93.77 647.3,445.29 0,20.98 -1.56,40.86 -4.67,61.12 -2.97,19.35 -7.26,38.04 -12.84,57.59l-29.4 102.98 -107.71 5.41c-89.46,4.48 -184.37,4.49 -290.64,4.49l-207.37 0 62 -186.17c-10.88,-6.22 -21.58,-12.56 -32.17,-20.25 -14.59,-2.64 -29.07,-4.8 -43.44,-6.49 -26.38,-3.1 -53.76,-4.66 -82.07,-4.66 -105.03,0 -187.73,34.52 -244.56,87.75 -61.43,57.52 -94.97,138.18 -94.97,220.69 0,236.78 233.24,357.68 471.02,480.92 217.8,112.89 438.45,227.28 563.54,423.71 -1.33,-43.6 -1.95,-87.48 -1.95,-131.49 0,-30.29 0.92,-71.18 2.37,-118.08l-111.15 0 0 -150 0 -167.05 0 -150 134.12 0c5.32,-74.49 10.91,-143.07 16.28,-209.02 15.65,-192.14 29.55,-362.62 25.03,-482.67l-6.07 -161.4 161.34 6.72 279.73 11.66 153.75 6.41 -10.2 152.96c-10.13,151.86 -18.9,292.51 -26.22,422.69 -4.8,85.21 -9.17,167.83 -13.12,248.15l347.79 -2.69 48.51 -0.38 3.08 -19.62 127.71 0 260.3 0 176.22 0 -28.56 174.02c-40.38,246.03 -40.39,736.95 -40.39,993.9 0,49.91 1.61,154.44 24.84,240.58 12.05,44.71 27,83.41 42.72,83.41 246.99,0 403.2,-1093.13 442.3,-1366.75l0.23 0.03 16.87 -126.58 129.4 -1.92 260.3 -3.87 153.13 -2.28 -1.96 153.45c-1.72,134.75 -5.54,263.76 -9.33,392.35 -0.78,26.56 -1.57,53.1 -2.33,79.74 38.93,-88.39 86.88,-173.84 144.46,-251.83 162.09,-219.54 398.02,-382.79 720.92,-398.63l2.93 0c76.19,-2.18 147.84,4.59 214.95,19.37 -0.25,-47.51 -0.56,-84.42 -0.88,-121.31 -1.26,-146.94 -2.53,-293.9 -2.53,-339.21 0,-23 0.01,-46.02 1.08,-170.16 0.5,-59.13 1.48,-117.07 3.39,-172.54l5 -145.31 144.41 0 295.28 0 158.24 0 -8.83 158.2c-7.98,142.88 -15.13,273.07 -21.49,392 71.97,-48.63 165.83,-76.19 260.6,-76.19 92.18,0 180.3,21.51 247.29,67.35 76.77,52.5 124.16,129.72 124.16,234.17 0,88.66 -38.23,165.87 -99.71,224.73l-10.26 107.9c-7.45,78.34 -12.14,180.6 -14.95,291.05 -1.64,64.31 -2.55,141.08 -2.98,222.3 46.09,-122.53 110.68,-242.38 195.85,-345.63zm-1667.17 1037.09c59.85,-73.98 103.5,-163.89 130.43,-227.87l3.52 -7.62 17.21 -35.13c139.78,-285.27 217.36,-443.62 232.84,-672.88 -10.85,-2.61 -21.75,-4.92 -32.62,-6.87 -35.1,-6.29 -71.53,-9.08 -107.66,-6.4l-4.1 0 -1 0.04 0 0.03c-192.14,9.16 -316.6,121.57 -391.97,263.08 -83.67,157.07 -111.42,348.07 -105.31,489.9l0.18 -0.01c3.95,53.53 24.53,184.61 74.18,271.13 12.18,21.24 21.95,36.94 24.05,36.81l3.52 0c56.59,-2.01 110.68,-47.28 156.73,-104.21zm-2292.06 -832.6c0.36,-10.35 0.74,-20.67 1.14,-30.94l-0.7 0.01 -366.67 2.77c-2.51,146.71 -4.54,300.85 -4.54,492.75 0,121.36 22.87,324.3 113.79,462.13 48.97,74.24 121.62,128.53 228.07,130.54l13.25 0.25 9.02 1.5c5.93,0.98 17.36,1.34 32.45,1.47 -29.96,-143.84 -32.22,-286.33 -32.22,-370.55l0 -264.18c0,-125.62 1.07,-271.19 6.41,-425.75zm-1484.13 -951.46c-1.32,-0.75 -2.64,-1.5 -3.95,-2.25 -0.29,1.12 -0.56,2.19 -0.82,3.18 2.55,-2.19 6.98,0.33 4.77,-0.93z"/>
   </g>
  </g>
 </g>
</svg>
